<svg width="21" height="20" viewBox="0 0 21 20" fill="none" xmlns="http://www.w3.org/2000/svg">
<path d="M0.5 5.80437C0.5 2.88345 2.89462 0.5 5.84581 0.5H14.3512C17.3024 0.5 19.697 2.88345 19.697 5.80437V14.1971C19.697 17.1178 17.3025 19.5 14.3512 19.5H5.84581C2.89446 19.5 0.5 17.1178 0.5 14.1971V5.80437ZM14.3512 1.21935H5.84581C3.27834 1.21935 1.23203 3.24726 1.23203 5.80437V14.1971C1.23203 16.7544 3.27857 18.7807 5.84581 18.7807H14.3512C16.9182 18.7807 18.9664 16.7546 18.9664 14.1971V5.80437C18.9664 3.24703 16.9184 1.21935 14.3512 1.21935ZM14.8078 4.64091C14.8078 4.25638 15.1225 3.93867 15.5189 3.93867C15.9153 3.93867 16.23 4.25638 16.23 4.64091C16.23 5.02546 15.9153 5.34315 15.5189 5.34315C15.1225 5.34315 14.8078 5.02546 14.8078 4.64091ZM5.41107 10C5.41107 7.44569 7.51631 5.35061 10.0985 5.35061C12.6809 5.35061 14.7874 7.44587 14.7874 10C14.7874 12.5541 12.6809 14.6494 10.0985 14.6494C7.51631 14.6494 5.41107 12.5543 5.41107 10ZM14.0553 10C14.0553 7.81525 12.2899 6.06996 10.0985 6.06996C7.90689 6.06996 6.1431 7.81552 6.1431 10C6.1431 12.1845 7.90689 13.93 10.0985 13.93C12.2899 13.93 14.0553 12.1848 14.0553 10Z" fill="white" stroke="white"/>
</svg>
